<svg xmlns="http://www.w3.org/2000/svg" viewBox="0 0 861.9 66.81"><defs><style>.cls-1{fill:#fff;}</style></defs><g id="レイヤー_2" data-name="レイヤー 2"><g id="レイヤー_1-2" data-name="レイヤー 1"><path class="cls-1" d="M0,66,.1,20.45H4.93v6.62A19.94,19.94,0,0,1,10,22,14.32,14.32,0,0,1,18,19.63a13.22,13.22,0,0,1,8.56,2.75,13.07,13.07,0,0,1,3.67,5.85,17.13,17.13,0,0,1,5.27-6,17.28,17.28,0,0,1,9.52-2.56q8.37,0,11.8,5.07a11.67,11.67,0,0,1,2.08,5.61q.24,2.81.24,6.86V66H54.24V38.67a60.17,60.17,0,0,0-.24-7.2q-1.5-7.16-10.2-7.16-6.15,0-9.19,4.26Q32,32.14,32.05,38.67V66H27.12V38.67a28.79,28.79,0,0,0-.77-8q-2-6.33-9.19-6.34a11.26,11.26,0,0,0-9,4.07C6,31,4.93,34.39,4.93,38.67V66Z"/><path class="cls-1" d="M115.82,45.34H76.62a19.33,19.33,0,0,0,3.19,9.53,16,16,0,0,0,13.78,7.25,18.1,18.1,0,0,0,10.78-3.77,16.65,16.65,0,0,0,4.54-5.08L113,55.45a19.61,19.61,0,0,1-5.37,6.43,21.55,21.55,0,0,1-13.92,4.93,22.83,22.83,0,0,1-12.52-3.58A20.58,20.58,0,0,1,73.86,55,26.59,26.59,0,0,1,71.3,43.46q0-10.3,6-16.92a21.44,21.44,0,0,1,16.34-6.91q11.61,0,17.89,8.89A23,23,0,0,1,116,42.2C116,43,116,44.05,115.82,45.34Zm-39-4.64h33.69a17.29,17.29,0,0,0-2.66-8.89,17.36,17.36,0,0,0-14.3-7.5,16.23,16.23,0,0,0-16.15,13A29.39,29.39,0,0,0,76.86,40.7Z"/><path class="cls-1" d="M127.91,66V20.45h4.93v6.86q6.14-7.68,14.21-7.68a14.44,14.44,0,0,1,10,3.57A10.62,10.62,0,0,1,160.44,29a24.48,24.48,0,0,1,.48,5.36V66H156V36.54q0-6.7-1.93-9.23-2.42-3-7.64-3a13.51,13.51,0,0,0-10,4.2,13,13,0,0,0-2.8,4.11,15.73,15.73,0,0,0-.82,5.51V66Z"/><path class="cls-1" d="M180.11,0l-.72,26.39h-4.25L174.41,0Z"/><path class="cls-1" d="M220.87,32.48h-5.18a7.26,7.26,0,0,0-.92-4q-2.55-4.3-9.28-4.3-4.78,0-7.44,2.22a6.53,6.53,0,0,0-2.51,5.51,6.79,6.79,0,0,0,3.72,6.24,28.31,28.31,0,0,0,7.05,2.37,35.59,35.59,0,0,1,8.8,3.14,13.12,13.12,0,0,1,5.08,5.61,12.91,12.91,0,0,1,1.11,5.07A11.52,11.52,0,0,1,216,64.24q-3.72,2.57-10.25,2.57-14.83,0-16.33-13.54h5a9.19,9.19,0,0,0,2.18,5.46c2.13,2.39,5.23,3.58,9.33,3.58a11.6,11.6,0,0,0,7.35-2.13,7.14,7.14,0,0,0,2.9-5.8,7.29,7.29,0,0,0-3-5.85q-2-1.59-8.36-3.14-7.35-1.74-10.59-4.59a11.27,11.27,0,0,1-3.82-8.7,11.34,11.34,0,0,1,5.27-9.82,17,17,0,0,1,9.91-2.65q8.26,0,12.47,5A13,13,0,0,1,220.87,32.48Z"/><path class="cls-1" d="M297.87,28.86V20.45h4.93V66h-4.93V55.93q-6.72,10.88-17,10.88A19.85,19.85,0,0,1,265.48,60q-5.7-6.29-5.7-16.77,0-11.89,7.35-18.42a20,20,0,0,1,13.63-5.17A20.33,20.33,0,0,1,292,22.86,21,21,0,0,1,297.87,28.86Zm-16.73-4.55c-5.25,0-9.29,2-12.13,5.85a22,22,0,0,0-4.11,13.35q0,8.79,5.32,14.11a14.59,14.59,0,0,0,10.68,4.5q7.74,0,12.86-6.58a19.94,19.94,0,0,0,3.34-6.91,22.26,22.26,0,0,0,.92-6.14q0-8.46-4.84-13.29A16.34,16.34,0,0,0,281.14,24.31Z"/><path class="cls-1" d="M359.79,45.34h-39.2a19.33,19.33,0,0,0,3.19,9.53,16,16,0,0,0,13.78,7.25,18.1,18.1,0,0,0,10.78-3.77,16.52,16.52,0,0,0,4.54-5.08L357,55.45a19.49,19.49,0,0,1-5.37,6.43,21.55,21.55,0,0,1-13.92,4.93,22.83,22.83,0,0,1-12.52-3.58A20.58,20.58,0,0,1,317.83,55a26.59,26.59,0,0,1-2.56-11.55q0-10.3,6.05-16.92a21.4,21.4,0,0,1,16.33-6.91q11.61,0,17.89,8.89A23,23,0,0,1,360,42.2C360,43,359.92,44.05,359.79,45.34Zm-39-4.64h33.69a17.38,17.38,0,0,0-2.65-8.89,17.4,17.4,0,0,0-14.31-7.5,16.23,16.23,0,0,0-16.15,13A31.73,31.73,0,0,0,320.83,40.7Z"/><path class="cls-1" d="M398.85,32.48h-5.17a7.34,7.34,0,0,0-.92-4q-2.56-4.3-9.28-4.3-4.78,0-7.44,2.22a6.54,6.54,0,0,0-2.52,5.51,6.79,6.79,0,0,0,3.72,6.24,28.41,28.41,0,0,0,7.06,2.37,35.59,35.59,0,0,1,8.8,3.14,13.12,13.12,0,0,1,5.08,5.61,12.91,12.91,0,0,1,1.11,5.07A11.54,11.54,0,0,1,394,64.24q-3.72,2.57-10.25,2.57-14.84,0-16.34-13.54h5a9.13,9.13,0,0,0,2.18,5.46q3.18,3.59,9.33,3.58a11.55,11.55,0,0,0,7.34-2.13,7.11,7.11,0,0,0,2.9-5.8,7.31,7.31,0,0,0-3-5.85c-1.33-1.06-4.11-2.11-8.37-3.14q-7.35-1.74-10.58-4.59a11.27,11.27,0,0,1-3.82-8.7,11.32,11.32,0,0,1,5.27-9.82,17,17,0,0,1,9.91-2.65q8.26,0,12.47,5A12.94,12.94,0,0,1,398.85,32.48Z"/><path class="cls-1" d="M424.86,25.09h-7.44V58.78c0,1.23.25,2,.77,2.32a5.55,5.55,0,0,0,2.51.39h4.16V66h-5.37c-2.38,0-4.14-.46-5.27-1.4s-1.74-2.62-1.74-4.88V25.09h-6.91V20.45h6.91V5.08h4.94V20.45h7.44Z"/><path class="cls-1" d="M436.56,0h4.93V27.51a22.78,22.78,0,0,1,5.65-5.37,16.37,16.37,0,0,1,8.7-2.51,15.88,15.88,0,0,1,7.93,2.07,10.34,10.34,0,0,1,4.89,6,24.18,24.18,0,0,1,.91,7.39V66h-4.93V34.76q0-10.44-9.38-10.45a13.07,13.07,0,0,0-10.53,5,13,13,0,0,0-2.66,4.79,21.46,21.46,0,0,0-.58,5.46V66h-4.93Z"/><path class="cls-1" d="M526.23,45.34H487a19.43,19.43,0,0,0,3.19,9.53A16,16,0,0,0,504,62.12a18.08,18.08,0,0,0,10.78-3.77,16.69,16.69,0,0,0,4.55-5.08l4.1,2.18a19.46,19.46,0,0,1-5.36,6.43,21.55,21.55,0,0,1-13.92,4.93,22.81,22.81,0,0,1-12.52-3.58A20.43,20.43,0,0,1,484.27,55a26.45,26.45,0,0,1-2.56-11.55q0-10.3,6-16.92a21.42,21.42,0,0,1,16.34-6.91q11.59,0,17.88,8.89a22.9,22.9,0,0,1,4.45,13.68C526.42,43,526.36,44.05,526.23,45.34Zm-39-4.64H521a17.39,17.39,0,0,0-2.66-8.89A17.4,17.4,0,0,0,504,24.31a16.21,16.21,0,0,0-16.14,13A27.38,27.38,0,0,0,487.27,40.7Z"/><path class="cls-1" d="M551,25.09h-7.45V58.78c0,1.23.26,2,.77,2.32a5.6,5.6,0,0,0,2.52.39H551V66h-5.37c-2.39,0-4.14-.46-5.27-1.4s-1.74-2.62-1.74-4.88V25.09h-6.91V20.45h6.91V5.08h4.93V20.45H551Z"/><path class="cls-1" d="M565.24,4A3.52,3.52,0,0,1,568,5.22a3.74,3.74,0,0,1,.92,2.51,3.44,3.44,0,0,1-1.21,2.71,3.7,3.7,0,0,1-2.51,1,3.57,3.57,0,0,1-2.8-1.26,3.62,3.62,0,0,1-.92-2.46A3.71,3.71,0,0,1,565.24,4Zm-2.56,16.49h4.93V66h-4.93Z"/><path class="cls-1" d="M614.79,56.51l3.09,3.58a21.47,21.47,0,0,1-6.53,4.64,23,23,0,0,1-9.76,2.08A19.93,19.93,0,0,1,586,60.09q-5.85-6.44-5.85-16.83a26.71,26.71,0,0,1,3.09-12.85,20,20,0,0,1,9.43-8.8,22.8,22.8,0,0,1,9.47-2,21.48,21.48,0,0,1,15.76,6.47l-3.09,3.34a18.34,18.34,0,0,0-12.72-5.13,15.66,15.66,0,0,0-12.81,5.9q-4,5-4,12.81,0,9.76,5.61,14.94a15.61,15.61,0,0,0,10.83,4.16A17.75,17.75,0,0,0,614.79,56.51Z"/><path class="cls-1" d="M685.46,32.48h-5.17a7.34,7.34,0,0,0-.92-4q-2.57-4.3-9.28-4.3c-3.19,0-5.68.74-7.45,2.22a6.56,6.56,0,0,0-2.51,5.51,6.79,6.79,0,0,0,3.72,6.24,28.41,28.41,0,0,0,7.06,2.37,35.75,35.75,0,0,1,8.8,3.14,13.1,13.1,0,0,1,5.07,5.61,12.91,12.91,0,0,1,1.11,5.07,11.53,11.53,0,0,1-5.31,9.91q-3.74,2.57-10.25,2.57-14.85,0-16.34-13.54h5a9.18,9.18,0,0,0,2.17,5.46q3.19,3.59,9.33,3.58a11.58,11.58,0,0,0,7.35-2.13,7.14,7.14,0,0,0,2.9-5.8,7.29,7.29,0,0,0-3-5.85q-2-1.59-8.36-3.14-7.35-1.74-10.59-4.59A11.3,11.3,0,0,1,655,32.1a11.34,11.34,0,0,1,5.27-9.82,17,17,0,0,1,9.91-2.65q8.27,0,12.47,5A13,13,0,0,1,685.46,32.48Z"/><path class="cls-1" d="M732.78,28.86V20.45h4.93V66h-4.93V55.93q-6.72,10.88-17,10.88A19.83,19.83,0,0,1,700.4,60q-5.71-6.29-5.71-16.77,0-11.89,7.35-18.42a20,20,0,0,1,13.63-5.17,20.39,20.39,0,0,1,11.22,3.23A20.94,20.94,0,0,1,732.78,28.86Zm-16.72-4.55c-5.26,0-9.3,2-12.14,5.85a22,22,0,0,0-4.1,13.35q0,8.79,5.31,14.11a14.6,14.6,0,0,0,10.69,4.5q7.73,0,12.85-6.58A19.77,19.77,0,0,0,732,48.63a22.26,22.26,0,0,0,.92-6.14q0-8.46-4.84-13.29A16.32,16.32,0,0,0,716.06,24.31Z"/><path class="cls-1" d="M759.18,0V66h-4.93V0Z"/><path class="cls-1" d="M794.13,19.63a21.29,21.29,0,0,1,17.2,8.07q5,6.14,5,15.56a25.8,25.8,0,0,1-2.27,10.54,21.57,21.57,0,0,1-9.23,10.11,21.89,21.89,0,0,1-11,2.9,22.13,22.13,0,0,1-12-3.39q-10.2-6.37-10.2-20.35,0-11.12,6.62-17.35A22.28,22.28,0,0,1,794.13,19.63Zm0,4.68a16.46,16.46,0,0,0-13.2,6q-4.11,4.89-4.11,13.05,0,8.7,4.84,13.68a16.64,16.64,0,0,0,12.47,5.13,15.74,15.74,0,0,0,13.39-6.53,20.45,20.45,0,0,0,3.77-12.37q0-9.09-5.13-14.07A16.66,16.66,0,0,0,794.08,24.31Z"/><path class="cls-1" d="M828.88,66V20.45h4.93v6.86Q840,19.63,848,19.63a14.47,14.47,0,0,1,10.06,3.57A10.75,10.75,0,0,1,861.42,29a24.48,24.48,0,0,1,.48,5.36V66H857V36.54q0-6.7-1.94-9.23-2.41-3-7.63-3a13.51,13.51,0,0,0-10,4.2,13,13,0,0,0-2.81,4.11,16,16,0,0,0-.82,5.51V66Z"/></g></g></svg>